<svg width="1200" height="820" viewBox="0 0 1200 820" fill="none" xmlns="http://www.w3.org/2000/svg">
  <defs>
    <linearGradient id="g1" x1="0" y1="0" x2="1200" y2="820" gradientUnits="userSpaceOnUse">
      <stop stop-color="#161618"/>
      <stop offset="1" stop-color="#0b0b0c"/>
    </linearGradient>
    <linearGradient id="gold" x1="0" y1="0" x2="1" y2="1">
      <stop stop-color="#F2BC6B"/>
      <stop offset="1" stop-color="#DF9830"/>
    </linearGradient>
    <filter id="shadow" x="-20" y="-20" width="1240" height="860" filterUnits="userSpaceOnUse" color-interpolation-filters="sRGB">
      <feDropShadow dx="0" dy="18" stdDeviation="22" flood-color="#000000" flood-opacity="0.45"/>
    </filter>
  </defs>

  <rect x="0" y="0" width="1200" height="820" rx="28" fill="url(#g1)" stroke="#2A2A31"/>

  <g filter="url(#shadow)">
    <rect x="70" y="70" width="1060" height="680" rx="22" fill="#111113" stroke="#2A2A31"/>
  </g>

  <rect x="96" y="100" width="320" height="620" rx="18" fill="#0f0f11" stroke="#2A2A31"/>
  <rect x="126" y="140" width="140" height="14" rx="7" fill="#2A2A31"/>
  <rect x="126" y="182" width="220" height="10" rx="5" fill="#1f1f23"/>
  <rect x="126" y="214" width="200" height="10" rx="5" fill="#1f1f23"/>
  <rect x="126" y="246" width="230" height="10" rx="5" fill="#1f1f23"/>
  <rect x="126" y="310" width="250" height="42" rx="12" fill="#161618" stroke="#2A2A31"/>
  <rect x="142" y="324" width="160" height="14" rx="7" fill="url(#gold)"/>
  <rect x="126" y="380" width="250" height="42" rx="12" fill="#161618" stroke="#2A2A31"/>
  <rect x="142" y="394" width="120" height="14" rx="7" fill="#2A2A31"/>
  <rect x="126" y="450" width="250" height="42" rx="12" fill="#161618" stroke="#2A2A31"/>
  <rect x="142" y="464" width="190" height="14" rx="7" fill="#2A2A31"/>

  <rect x="440" y="100" width="674" height="132" rx="18" fill="#0f0f11" stroke="#2A2A31"/>
  <rect x="468" y="130" width="220" height="14" rx="7" fill="#2A2A31"/>
  <rect x="468" y="160" width="320" height="10" rx="5" fill="#1f1f23"/>
  <rect x="468" y="186" width="290" height="10" rx="5" fill="#1f1f23"/>
  <rect x="840" y="128" width="244" height="78" rx="14" fill="#161618" stroke="#2A2A31"/>
  <path d="M858 188C885 150 915 170 940 148C965 126 995 135 1064 138" stroke="url(#gold)" stroke-width="6" stroke-linecap="round"/>
  <circle cx="940" cy="148" r="7" fill="#DF9830"/>

  <rect x="440" y="252" width="416" height="238" rx="18" fill="#0f0f11" stroke="#2A2A31"/>
  <rect x="468" y="282" width="210" height="12" rx="6" fill="#2A2A31"/>
  <path d="M470 452C520 390 570 418 615 362C662 304 720 330 768 292C820 250 832 306 848 322" stroke="#2A2A31" stroke-width="5" stroke-linecap="round"/>
  <path d="M470 452C520 390 570 418 615 362C662 304 720 330 768 292C820 250 832 306 848 322" stroke="url(#gold)" stroke-width="3.5" stroke-linecap="round"/>
  <circle cx="615" cy="362" r="6" fill="#F2BC6B"/>
  <circle cx="768" cy="292" r="6" fill="#DF9830"/>

  <rect x="876" y="252" width="238" height="238" rx="18" fill="#0f0f11" stroke="#2A2A31"/>
  <rect x="902" y="282" width="160" height="12" rx="6" fill="#2A2A31"/>
  <circle cx="996" cy="372" r="74" fill="#161618" stroke="#2A2A31" stroke-width="2"/>
  <path d="M996 298A74 74 0 0 1 1060 372" stroke="url(#gold)" stroke-width="14" stroke-linecap="round"/>
  <path d="M1060 372A74 74 0 0 1 996 446" stroke="#2A2A31" stroke-width="14" stroke-linecap="round"/>

  <rect x="440" y="510" width="674" height="210" rx="18" fill="#0f0f11" stroke="#2A2A31"/>
  <rect x="468" y="540" width="220" height="12" rx="6" fill="#2A2A31"/>
  <rect x="468" y="578" width="610" height="18" rx="9" fill="#161618" stroke="#2A2A31"/>
  <rect x="468" y="612" width="560" height="18" rx="9" fill="#161618" stroke="#2A2A31"/>
  <rect x="468" y="646" width="490" height="18" rx="9" fill="#161618" stroke="#2A2A31"/>

  <rect x="980" y="578" width="98" height="18" rx="9" fill="url(#gold)" opacity="0.9"/>
</svg>
