<svg width="1200" height="720" viewBox="0 0 1200 720" fill="none" xmlns="http://www.w3.org/2000/svg">
  <defs>
    <linearGradient id="bg" x1="160" y1="80" x2="1040" y2="640" gradientUnits="userSpaceOnUse">
      <stop stop-color="#0B0B0F"/>
      <stop offset="1" stop-color="#18181B"/>
    </linearGradient>
    <linearGradient id="gold" x1="0" y1="0" x2="1" y2="1">
      <stop stop-color="#F2BC6B"/>
      <stop offset="1" stop-color="#DF9830"/>
    </linearGradient>
    <filter id="shadow" x="-50" y="-50" width="1300" height="820" filterUnits="userSpaceOnUse" color-interpolation-filters="sRGB">
      <feDropShadow dx="0" dy="18" stdDeviation="22" flood-color="#000000" flood-opacity="0.55"/>
    </filter>
  </defs>

  <rect x="60" y="60" width="1080" height="600" rx="28" fill="url(#bg)" stroke="#2A2A31" stroke-width="2"/>

  <g filter="url(#shadow)">
    <rect x="140" y="132" width="920" height="456" rx="24" fill="#0F0F15" stroke="#2A2A31" stroke-width="2"/>
  </g>

  <!-- Title -->
  <rect x="180" y="170" width="220" height="14" rx="7" fill="#B8B8C0" opacity="0.45"/>
  <rect x="180" y="196" width="320" height="10" rx="5" fill="#B8B8C0" opacity="0.22"/>

  <!-- Bars -->
  <rect x="220" y="454" width="64" height="92" rx="14" fill="#1F1F23" stroke="#2A2A31" stroke-width="2"/>
  <rect x="300" y="402" width="64" height="144" rx="14" fill="#1F1F23" stroke="#2A2A31" stroke-width="2"/>
  <rect x="380" y="358" width="64" height="188" rx="14" fill="#1F1F23" stroke="#2A2A31" stroke-width="2"/>
  <rect x="460" y="314" width="64" height="232" rx="14" fill="#1F1F23" stroke="#2A2A31" stroke-width="2"/>
  <rect x="540" y="270" width="64" height="276" rx="14" fill="url(#gold)" opacity="0.95"/>
  <rect x="620" y="330" width="64" height="216" rx="14" fill="#1F1F23" stroke="#2A2A31" stroke-width="2"/>

  <!-- Trend line -->
  <path d="M220 338C308 300 370 320 444 280C520 240 576 252 640 230C714 206 772 218 860 170"
        stroke="url(#gold)" stroke-width="6" stroke-linecap="round"/>
  <circle cx="540" cy="270" r="10" fill="#DF9830"/>
  <circle cx="860" cy="170" r="10" fill="#DF9830"/>

  <!-- Right cards -->
  <rect x="760" y="246" width="270" height="120" rx="20" fill="#121219" stroke="#2A2A31" stroke-width="2"/>
  <rect x="790" y="274" width="120" height="10" rx="5" fill="#B8B8C0" opacity="0.35"/>
  <rect x="790" y="296" width="190" height="18" rx="9" fill="url(#gold)" opacity="0.85"/>
  <rect x="790" y="328" width="140" height="10" rx="5" fill="#B8B8C0" opacity="0.22"/>

  <rect x="760" y="392" width="270" height="120" rx="20" fill="#121219" stroke="#2A2A31" stroke-width="2"/>
  <rect x="790" y="420" width="160" height="10" rx="5" fill="#B8B8C0" opacity="0.35"/>
  <rect x="790" y="444" width="90" height="18" rx="9" fill="url(#gold)" opacity="0.65"/>
  <rect x="790" y="476" width="190" height="10" rx="5" fill="#B8B8C0" opacity="0.22"/>
</svg>

