<svg width="1200" height="720" viewBox="0 0 1200 720" fill="none" xmlns="http://www.w3.org/2000/svg">
  <defs>
    <linearGradient id="bg" x1="140" y1="70" x2="1060" y2="650" gradientUnits="userSpaceOnUse">
      <stop stop-color="#0B0B0F"/>
      <stop offset="1" stop-color="#111113"/>
    </linearGradient>
    <linearGradient id="gold" x1="0" y1="0" x2="1" y2="1">
      <stop stop-color="#F2BC6B"/>
      <stop offset="1" stop-color="#DF9830"/>
    </linearGradient>
    <filter id="shadow" x="-60" y="-60" width="1320" height="880" filterUnits="userSpaceOnUse" color-interpolation-filters="sRGB">
      <feDropShadow dx="0" dy="18" stdDeviation="22" flood-color="#000000" flood-opacity="0.55"/>
    </filter>
  </defs>

  <rect x="60" y="60" width="1080" height="600" rx="28" fill="url(#bg)" stroke="#2A2A31" stroke-width="2"/>

  <g filter="url(#shadow)">
    <rect x="130" y="130" width="940" height="460" rx="24" fill="#0F0F15" stroke="#2A2A31" stroke-width="2"/>
  </g>

  <!-- Sidebar -->
  <rect x="160" y="160" width="180" height="400" rx="20" fill="#0B0B0F" stroke="#2A2A31" stroke-width="2"/>
  <rect x="186" y="188" width="128" height="26" rx="10" fill="#121219" stroke="#2A2A31" stroke-width="2"/>
  <circle cx="202" cy="201" r="6" fill="url(#gold)"/>
  <rect x="214" y="196" width="80" height="10" rx="5" fill="#B8B8C0" opacity="0.45"/>
  <g opacity="0.85">
    <rect x="186" y="246" width="128" height="10" rx="5" fill="#B8B8C0" opacity="0.35"/>
    <rect x="186" y="274" width="112" height="10" rx="5" fill="#B8B8C0" opacity="0.25"/>
    <rect x="186" y="302" width="120" height="10" rx="5" fill="#B8B8C0" opacity="0.25"/>
    <rect x="186" y="330" width="98" height="10" rx="5" fill="#B8B8C0" opacity="0.25"/>
    <rect x="186" y="358" width="126" height="10" rx="5" fill="#B8B8C0" opacity="0.25"/>
  </g>

  <!-- Main panels -->
  <rect x="370" y="160" width="320" height="140" rx="20" fill="#121219" stroke="#2A2A31" stroke-width="2"/>
  <rect x="712" y="160" width="330" height="140" rx="20" fill="#121219" stroke="#2A2A31" stroke-width="2"/>

  <rect x="398" y="190" width="140" height="10" rx="5" fill="#B8B8C0" opacity="0.35"/>
  <rect x="398" y="214" width="180" height="22" rx="10" fill="url(#gold)" opacity="0.85"/>
  <rect x="398" y="250" width="220" height="10" rx="5" fill="#B8B8C0" opacity="0.2"/>

  <rect x="740" y="190" width="160" height="10" rx="5" fill="#B8B8C0" opacity="0.35"/>
  <rect x="740" y="214" width="250" height="22" rx="10" fill="#1F1F23" stroke="#2A2A31" stroke-width="2"/>
  <rect x="752" y="222" width="140" height="6" rx="3" fill="url(#gold)" opacity="0.8"/>
  <rect x="740" y="250" width="200" height="10" rx="5" fill="#B8B8C0" opacity="0.2"/>

  <!-- Chart -->
  <rect x="370" y="320" width="672" height="240" rx="22" fill="#121219" stroke="#2A2A31" stroke-width="2"/>
  <rect x="398" y="350" width="180" height="10" rx="5" fill="#B8B8C0" opacity="0.35"/>

  <g opacity="0.35">
    <path d="M410 522H1014" stroke="#2A2A31" stroke-width="2"/>
    <path d="M410 472H1014" stroke="#2A2A31" stroke-width="2"/>
    <path d="M410 422H1014" stroke="#2A2A31" stroke-width="2"/>
    <path d="M410 372H1014" stroke="#2A2A31" stroke-width="2"/>
  </g>

  <path d="M430 508C510 470 580 492 650 438C724 380 786 410 852 364C920 318 960 332 1000 300"
        stroke="url(#gold)" stroke-width="6" stroke-linecap="round"/>
  <path d="M430 508C510 470 580 492 650 438C724 380 786 410 852 364C920 318 960 332 1000 300V560H430V508Z"
        fill="url(#gold)" opacity="0.09"/>
</svg>

