<svg width="1200" height="740" viewBox="0 0 1200 740" fill="none" xmlns="http://www.w3.org/2000/svg">
  <defs>
    <linearGradient id="bg" x1="140" y1="50" x2="1060" y2="690" gradientUnits="userSpaceOnUse">
      <stop stop-color="#0B0B0F"/>
      <stop offset="1" stop-color="#111113"/>
    </linearGradient>
    <linearGradient id="panel" x1="0" y1="0" x2="0" y2="740" gradientUnits="userSpaceOnUse">
      <stop stop-color="#1A1A21"/>
      <stop offset="1" stop-color="#121219"/>
    </linearGradient>
    <linearGradient id="gold" x1="0" y1="0" x2="1" y2="1">
      <stop stop-color="#F2BC6B"/>
      <stop offset="1" stop-color="#DF9830"/>
    </linearGradient>
    <filter id="shadow" x="-50" y="-50" width="1300" height="900" filterUnits="userSpaceOnUse" color-interpolation-filters="sRGB">
      <feDropShadow dx="0" dy="20" stdDeviation="24" flood-color="#000000" flood-opacity="0.5"/>
    </filter>
  </defs>

  <!-- Outer device -->
  <g filter="url(#shadow)">
    <rect x="70" y="60" width="1060" height="620" rx="28" fill="url(#bg)" stroke="#2A2A31" stroke-width="2"/>
    <rect x="90" y="90" width="1020" height="560" rx="22" fill="url(#panel)" stroke="#2A2A31" stroke-width="2"/>
  </g>

  <!-- Left sidebar -->
  <rect x="110" y="110" width="190" height="520" rx="16" fill="#0F0F15" stroke="#2A2A31" stroke-width="2"/>
  <rect x="132" y="134" width="146" height="36" rx="10" fill="#121219" stroke="#2A2A31" stroke-width="2"/>
  <circle cx="149" cy="152" r="6" fill="url(#gold)"/>
  <rect x="162" y="146" width="90" height="12" rx="6" fill="#B8B8C0" opacity="0.7"/>

  <g opacity="0.9">
    <rect x="132" y="196" width="146" height="12" rx="6" fill="#B8B8C0" opacity="0.45"/>
    <rect x="132" y="224" width="118" height="12" rx="6" fill="#B8B8C0" opacity="0.35"/>
    <rect x="132" y="252" width="132" height="12" rx="6" fill="#B8B8C0" opacity="0.35"/>
    <rect x="132" y="280" width="102" height="12" rx="6" fill="#B8B8C0" opacity="0.35"/>
    <rect x="132" y="308" width="140" height="12" rx="6" fill="#B8B8C0" opacity="0.35"/>
    <rect x="132" y="336" width="96" height="12" rx="6" fill="#B8B8C0" opacity="0.35"/>
  </g>

  <!-- Top KPIs -->
  <rect x="322" y="110" width="365" height="120" rx="16" fill="#0F0F15" stroke="#2A2A31" stroke-width="2"/>
  <rect x="706" y="110" width="382" height="120" rx="16" fill="#0F0F15" stroke="#2A2A31" stroke-width="2"/>

  <rect x="344" y="136" width="120" height="12" rx="6" fill="#B8B8C0" opacity="0.5"/>
  <rect x="344" y="160" width="160" height="26" rx="10" fill="#121219" stroke="#2A2A31" stroke-width="2"/>
  <rect x="354" y="170" width="90" height="8" rx="4" fill="url(#gold)" opacity="0.95"/>
  <rect x="516" y="160" width="150" height="26" rx="10" fill="#121219" stroke="#2A2A31" stroke-width="2"/>
  <rect x="526" y="170" width="70" height="8" rx="4" fill="#B8B8C0" opacity="0.55"/>

  <rect x="728" y="136" width="140" height="12" rx="6" fill="#B8B8C0" opacity="0.5"/>
  <rect x="728" y="160" width="330" height="26" rx="10" fill="#121219" stroke="#2A2A31" stroke-width="2"/>
  <rect x="740" y="170" width="150" height="8" rx="4" fill="url(#gold)" opacity="0.9"/>
  <rect x="900" y="170" width="90" height="8" rx="4" fill="#B8B8C0" opacity="0.35"/>

  <!-- Main chart -->
  <rect x="322" y="250" width="766" height="380" rx="18" fill="#0F0F15" stroke="#2A2A31" stroke-width="2"/>
  <rect x="344" y="276" width="190" height="12" rx="6" fill="#B8B8C0" opacity="0.5"/>
  <rect x="344" y="304" width="130" height="10" rx="5" fill="#B8B8C0" opacity="0.3"/>

  <!-- Grid lines -->
  <g opacity="0.35">
    <path d="M360 574H1068" stroke="#2A2A31" stroke-width="2"/>
    <path d="M360 524H1068" stroke="#2A2A31" stroke-width="2"/>
    <path d="M360 474H1068" stroke="#2A2A31" stroke-width="2"/>
    <path d="M360 424H1068" stroke="#2A2A31" stroke-width="2"/>
    <path d="M360 374H1068" stroke="#2A2A31" stroke-width="2"/>
  </g>

  <!-- Line chart -->
  <path d="M380 558C455 520 520 540 590 480C660 420 725 445 800 400C875 355 930 360 1000 330C1040 312 1052 300 1060 292"
        stroke="url(#gold)" stroke-width="6" stroke-linecap="round"/>
  <path d="M380 558C455 520 520 540 590 480C660 420 725 445 800 400C875 355 930 360 1000 330C1040 312 1052 300 1060 292V610H380V558Z"
        fill="url(#gold)" opacity="0.10"/>

  <!-- Data points -->
  <g>
    <circle cx="380" cy="558" r="7" fill="#DF9830"/>
    <circle cx="590" cy="480" r="7" fill="#DF9830"/>
    <circle cx="800" cy="400" r="7" fill="#DF9830"/>
    <circle cx="1000" cy="330" r="7" fill="#DF9830"/>
    <circle cx="1060" cy="292" r="7" fill="#DF9830"/>
  </g>

  <!-- Right "phone" tile -->
  <rect x="910" y="288" width="158" height="298" rx="18" fill="#0B0B0F" stroke="#2A2A31" stroke-width="2"/>
  <rect x="930" y="314" width="118" height="26" rx="10" fill="#121219" stroke="#2A2A31" stroke-width="2"/>
  <rect x="945" y="322" width="72" height="10" rx="5" fill="#B8B8C0" opacity="0.45"/>
  <rect x="930" y="356" width="118" height="10" rx="5" fill="#B8B8C0" opacity="0.25"/>
  <rect x="930" y="378" width="96" height="10" rx="5" fill="#B8B8C0" opacity="0.18"/>
  <rect x="930" y="400" width="108" height="10" rx="5" fill="#B8B8C0" opacity="0.18"/>
  <rect x="930" y="432" width="118" height="56" rx="14" fill="#121219" stroke="#2A2A31" stroke-width="2"/>
  <rect x="945" y="452" width="88" height="12" rx="6" fill="url(#gold)" opacity="0.8"/>
</svg>

