<svg width="1200" height="720" viewBox="0 0 1200 720" fill="none" xmlns="http://www.w3.org/2000/svg">
  <defs>
    <linearGradient id="bg" x1="160" y1="80" x2="1040" y2="640" gradientUnits="userSpaceOnUse">
      <stop stop-color="#0B0B0F"/>
      <stop offset="1" stop-color="#111113"/>
    </linearGradient>
    <linearGradient id="gold" x1="0" y1="0" x2="1" y2="1">
      <stop stop-color="#F2BC6B"/>
      <stop offset="1" stop-color="#DF9830"/>
    </linearGradient>
    <filter id="shadow" x="-60" y="-60" width="1320" height="880" filterUnits="userSpaceOnUse" color-interpolation-filters="sRGB">
      <feDropShadow dx="0" dy="18" stdDeviation="22" flood-color="#000000" flood-opacity="0.55"/>
    </filter>
  </defs>

  <rect x="60" y="60" width="1080" height="600" rx="28" fill="url(#bg)" stroke="#2A2A31" stroke-width="2"/>

  <g filter="url(#shadow)">
    <rect x="170" y="120" width="860" height="480" rx="26" fill="#0F0F15" stroke="#2A2A31" stroke-width="2"/>
  </g>

  <!-- Top nav -->
  <rect x="210" y="160" width="780" height="54" rx="18" fill="#121219" stroke="#2A2A31" stroke-width="2"/>
  <rect x="236" y="178" width="90" height="10" rx="5" fill="#B8B8C0" opacity="0.35"/>
  <rect x="352" y="178" width="70" height="10" rx="5" fill="#B8B8C0" opacity="0.22"/>
  <rect x="442" y="178" width="70" height="10" rx="5" fill="#B8B8C0" opacity="0.22"/>
  <rect x="842" y="170" width="128" height="34" rx="17" fill="url(#gold)" opacity="0.95"/>

  <!-- Hero -->
  <rect x="210" y="236" width="460" height="18" rx="9" fill="#B8B8C0" opacity="0.45"/>
  <rect x="210" y="264" width="560" height="54" rx="18" fill="#121219" stroke="#2A2A31" stroke-width="2"/>
  <rect x="230" y="286" width="300" height="10" rx="5" fill="url(#gold)" opacity="0.85"/>
  <rect x="210" y="334" width="520" height="12" rx="6" fill="#B8B8C0" opacity="0.22"/>
  <rect x="210" y="356" width="440" height="12" rx="6" fill="#B8B8C0" opacity="0.18"/>

  <rect x="210" y="392" width="190" height="46" rx="16" fill="url(#gold)" opacity="0.95"/>
  <rect x="420" y="392" width="190" height="46" rx="16" fill="#121219" stroke="#2A2A31" stroke-width="2"/>

  <!-- Right preview -->
  <rect x="720" y="236" width="270" height="340" rx="22" fill="#121219" stroke="#2A2A31" stroke-width="2"/>
  <rect x="746" y="264" width="180" height="10" rx="5" fill="#B8B8C0" opacity="0.35"/>
  <rect x="746" y="288" width="220" height="14" rx="7" fill="url(#gold)" opacity="0.85"/>
  <rect x="746" y="320" width="210" height="10" rx="5" fill="#B8B8C0" opacity="0.18"/>

  <rect x="746" y="354" width="218" height="86" rx="18" fill="#0B0B0F" stroke="#2A2A31" stroke-width="2"/>
  <rect x="766" y="380" width="120" height="10" rx="5" fill="#B8B8C0" opacity="0.25"/>
  <rect x="766" y="404" width="170" height="10" rx="5" fill="#B8B8C0" opacity="0.18"/>

  <rect x="746" y="458" width="218" height="86" rx="18" fill="#0B0B0F" stroke="#2A2A31" stroke-width="2"/>
  <rect x="766" y="484" width="150" height="10" rx="5" fill="#B8B8C0" opacity="0.25"/>
  <rect x="766" y="508" width="176" height="10" rx="5" fill="#B8B8C0" opacity="0.18"/>
</svg>

