<svg width="1200" height="720" viewBox="0 0 1200 720" fill="none" xmlns="http://www.w3.org/2000/svg">
  <defs>
    <linearGradient id="bg" x1="160" y1="80" x2="1040" y2="640" gradientUnits="userSpaceOnUse">
      <stop stop-color="#0B0B0F"/>
      <stop offset="1" stop-color="#18181B"/>
    </linearGradient>
    <linearGradient id="gold" x1="0" y1="0" x2="1" y2="1">
      <stop stop-color="#F2BC6B"/>
      <stop offset="1" stop-color="#DF9830"/>
    </linearGradient>
    <filter id="shadow" x="-60" y="-60" width="1320" height="880" filterUnits="userSpaceOnUse" color-interpolation-filters="sRGB">
      <feDropShadow dx="0" dy="18" stdDeviation="22" flood-color="#000000" flood-opacity="0.55"/>
    </filter>
  </defs>

  <rect x="60" y="60" width="1080" height="600" rx="28" fill="url(#bg)" stroke="#2A2A31" stroke-width="2"/>

  <g filter="url(#shadow)">
    <rect x="130" y="130" width="940" height="460" rx="24" fill="#0F0F15" stroke="#2A2A31" stroke-width="2"/>
  </g>

  <!-- Header -->
  <rect x="170" y="165" width="220" height="14" rx="7" fill="#B8B8C0" opacity="0.45"/>
  <rect x="170" y="192" width="340" height="10" rx="5" fill="#B8B8C0" opacity="0.22"/>

  <!-- Pipeline columns -->
  <rect x="170" y="228" width="270" height="340" rx="20" fill="#121219" stroke="#2A2A31" stroke-width="2"/>
  <rect x="465" y="228" width="270" height="340" rx="20" fill="#121219" stroke="#2A2A31" stroke-width="2"/>
  <rect x="760" y="228" width="310" height="340" rx="20" fill="#121219" stroke="#2A2A31" stroke-width="2"/>

  <rect x="194" y="254" width="140" height="10" rx="5" fill="#B8B8C0" opacity="0.35"/>
  <rect x="490" y="254" width="150" height="10" rx="5" fill="#B8B8C0" opacity="0.35"/>
  <rect x="784" y="254" width="160" height="10" rx="5" fill="#B8B8C0" opacity="0.35"/>

  <!-- Cards -->
  <rect x="194" y="288" width="222" height="70" rx="16" fill="#0B0B0F" stroke="#2A2A31" stroke-width="2"/>
  <rect x="212" y="310" width="120" height="10" rx="5" fill="#B8B8C0" opacity="0.32"/>
  <rect x="212" y="334" width="170" height="10" rx="5" fill="#B8B8C0" opacity="0.18"/>

  <rect x="194" y="372" width="222" height="84" rx="16" fill="#0B0B0F" stroke="#2A2A31" stroke-width="2"/>
  <rect x="212" y="398" width="150" height="10" rx="5" fill="#B8B8C0" opacity="0.32"/>
  <rect x="212" y="422" width="180" height="10" rx="5" fill="#B8B8C0" opacity="0.18"/>

  <rect x="490" y="288" width="222" height="84" rx="16" fill="#0B0B0F" stroke="#2A2A31" stroke-width="2"/>
  <rect x="508" y="314" width="128" height="10" rx="5" fill="#B8B8C0" opacity="0.32"/>
  <rect x="508" y="338" width="170" height="10" rx="5" fill="#B8B8C0" opacity="0.18"/>

  <rect x="490" y="386" width="222" height="70" rx="16" fill="#0B0B0F" stroke="#2A2A31" stroke-width="2"/>
  <rect x="508" y="408" width="110" height="10" rx="5" fill="#B8B8C0" opacity="0.32"/>
  <rect x="508" y="432" width="176" height="10" rx="5" fill="#B8B8C0" opacity="0.18"/>

  <!-- Highlighted card -->
  <rect x="784" y="288" width="262" height="94" rx="18" fill="#0B0B0F" stroke="#2A2A31" stroke-width="2"/>
  <rect x="804" y="316" width="160" height="12" rx="6" fill="url(#gold)" opacity="0.9"/>
  <rect x="804" y="344" width="210" height="10" rx="5" fill="#B8B8C0" opacity="0.22"/>

  <rect x="784" y="394" width="262" height="86" rx="18" fill="#0B0B0F" stroke="#2A2A31" stroke-width="2"/>
  <rect x="804" y="422" width="130" height="10" rx="5" fill="#B8B8C0" opacity="0.32"/>
  <rect x="804" y="446" width="210" height="10" rx="5" fill="#B8B8C0" opacity="0.18"/>

  <!-- Accent badge -->
  <rect x="784" y="498" width="128" height="32" rx="16" fill="url(#gold)" opacity="0.95"/>
  <rect x="804" y="510" width="88" height="8" rx="4" fill="#0B0B0F" opacity="0.65"/>
</svg>

